<?xml version="1.0" encoding="UTF-8"?>
<svg width="156px" height="134px" viewBox="0 0 156 134" version="1.1" xmlns="http://www.w3.org/2000/svg" xmlns:xlink="http://www.w3.org/1999/xlink">
    <!-- Generator: Sketch 53.2 (72643) - https://sketchapp.com -->
    <title>new york</title>
    <desc>Created with Sketch.</desc>
    <g id="Page-1" stroke="none" stroke-width="1" fill="none" fill-rule="evenodd">
        <g id="all-icons" transform="translate(-341.000000, -53.000000)">
            <g id="Group-46" transform="translate(83.000000, 53.000000)">
                <g id="new-york" transform="translate(259.000000, 0.000000)">
                    <path d="M129.903083,133.667968 C144.914,120.20425 154.357664,100.658435 154.357664,78.9069343 C154.357664,38.292841 121.433436,5.36861314 80.8193431,5.36861314 C40.2052498,5.36861314 7.2810219,38.292841 7.2810219,78.9069343 C7.2810219,100.416709 16.5159556,119.769549 31.2372186,133.21685 C54.6948848,133.190366 108.307097,134.157376 129.903083,133.667968 Z" id="Oval" fill="#C5001A" opacity="0.06"></path>
                    <g id="Group-2" transform="translate(54.364964, 0.000000)" fill-rule="nonzero" stroke-linecap="round" stroke-linejoin="round">
                        <g id="Group" transform="translate(7.281022, 0.000000)">
                            <g id="Group-5">
                                <path d="M13.7411433,39.4052892 C13.6316474,39.5649882 13.4185425,41.0116732 13.4185425,41.0116732 L13.7411433,41.6539919 L12.9358188,42.7777561 C12.9358188,42.7777561 12.1822988,40.8507999 11.9691939,39.2444159 C11.9432917,39.0389209 11.8856003,38.852214 11.8020067,38.6854695 L13.7411433,38.6525903 C13.7411433,38.6525903 13.8506391,39.2444159 13.7411433,39.4052892 Z M9.71452086,37.3162855 C9.71452086,37.3162855 9.77338961,36.5142678 9.65682949,35.3188738 L13.3679154,36.6739667 L13.0453146,37.5863647 L11.4864702,38.2286834 C10.829495,37.4900756 9.71452086,37.3162855 9.71452086,37.3162855 Z M24.3795689,48.5217715 C26.0420223,49.4341694 31.1604059,50.5868751 31.1604059,57.453072 C31.1604059,64.319269 36.2262904,63.9086664 36.7247641,70.374242 C37.2232379,76.8398175 35.40178,84.7277962 30.6083172,78.8617086 C30.2993071,80.7983209 30.6848684,95.4849929 31.7650011,122.921725 L3.95694986,122.921725 C8.08668835,91.1417806 8.93250517,72.5060573 6.49440033,67.0145547 C4.05629548,61.5230521 4.02329181,57.7779254 6.3953893,55.7791747 C4.71059963,55.3226342 4.24144039,53.7681306 4.98791159,51.115664 C2.18746237,52.0846676 -9.90318938e-14,42.1768705 5.15454761,38.8134635 C5.15454761,38.8134635 3.91712652,36.7256341 3.96893102,33.6737394 C4.02662239,30.6218447 3.70519903,25.7005324 3.70519903,25.7005324 C4.46929683,20.1034806 5.15921997,17.4904164 5.77496846,17.8613399 C8.15567641,19.2954653 6.37508746,20.3165728 6.62385064,22.8636271 C6.87579465,25.4432494 7.23859908,28.3917864 8.15567641,30.0887319 C9.115237,31.8559891 9.49552912,33.7571116 9.64387837,35.1650461 L13.7858835,35.4985352 L14.3851674,34.7986779 L11.5382747,29.8773656 L15.9440118,33.731278 L16.9624412,33.4623731 L17.5546608,26.9405481 L18.8945135,33.2498325 L20.1825617,33.4623731 L24.6919078,29.2338726 L21.8450152,34.374771 L22.7598355,35.3893293 L28.2864336,34.1563591 L23.2425592,36.6234737 L23.3520551,37.1049192 L27.8614012,38.332018 L23.56516,38.2803507 L23.1330634,39.8350674 C23.1330634,39.8350674 23.0306318,42.1354374 23.7264604,44.2749342 C23.7264604,44.2749342 24.1573796,45.2389994 23.56516,45.6687776 C23.56516,45.6687776 22.7171154,47.6152448 24.3795689,48.5217715 Z" id="Stroke-110" stroke="#041630" stroke-width="0.97080292" fill="#FEFEFE"></path>
                                <path d="M32.7188609,78.4697684 C34.0655401,79.2734147 34.8830843,78.6638101 35.1714934,76.6409548" id="Path-8" stroke="#041630" stroke-width="0.873722605" fill="#FEFEFE"></path>
                                <path d="M2.56117312,11.2754952 C2.47822447,11.1605731 1.50818606,9.23921818 1.25012358,8.3856817 C0.914872779,7.27596458 1.20023499,5.31031676 2.03548184,3.87139553 C2.34301362,5.54032891 2.78821119,6.02914713 3.37107455,5.3378502 C3.96138309,3.57891783 4.25653736,1.97908664 4.25653736,0.538356638 C4.25653736,-0.902373368 4.53011899,0.548617657 5.07728226,4.89132971 C5.50999628,5.74556244 5.94733366,5.40558437 6.38929441,3.87139553 C7.19416792,4.50646989 7.50647286,7.03270296 7.36873879,7.91881042 C7.23855549,8.76157294 5.88487956,11.2754952 5.53580398,11.2754952 C5.51045856,11.2754952 2.69020436,11.4514698 2.56117312,11.2754952 Z" id="Path" stroke="#C5001A" stroke-width="0.97080292" fill="#FFF2EE"></path>
                                <path d="M5.36874576,18.3010732 L6.17179958,15.4210841 L8.15567641,14.5603535 L8.15567641,11.7268707 C3.64633028,10.3330273 0,11.7268707 0,11.7268707 L0,14.3994803 L1.71425795,15.4210841 L2.51958243,17.5605809 L2.51958243,25.7005324 C2.54513098,26.8892081 3.00362042,27.4835459 3.89505074,27.4835459 C4.78648106,27.4835459 5.27771273,26.8892081 5.36874576,25.7005324 C5.36874576,25.7005324 5.36874576,23.234046 5.36874576,18.3010732 Z" id="Stroke-110" stroke="#041630" stroke-width="0.873722605" fill="#FEFEFE"></path>
                                <path d="M0.370957213,14.3994803 C1.74104652,14.1526495 2.88362372,14.0292341 3.79868881,14.0292341 C4.71375389,14.0292341 6.01196688,14.1526495 7.69332775,14.3994803" id="Path-21" stroke="#041630" stroke-width="0.873722605"></path>
                                <path d="M5.15454761,38.8134635 L6.3953893,45.5402775" id="Path-2" stroke="#041630" stroke-width="0.873722605" fill="#FEFEFE"></path>
                                <path d="M5.27972824,39.8060969 C2.04157673,42.1768705 2.04157673,49.4559854 5.88289901,47.1145912 C8.44378053,45.5536617 9.70175736,42.2214463 9.65682949,37.1179449" id="Path-9" stroke="#041630" stroke-width="0.873722605"></path>
                                <path d="M9.65682949,47.105146 C8.5084408,49.745937 6.95213483,51.0663324 4.98791159,51.0663324" id="Path-11" stroke="#041630" stroke-width="0.873722605"></path>
                                <path d="M11.3232516,52.5156573 C10.1159689,54.7838971 8.60657938,55.918017 6.79508291,55.918017" id="Path-12" stroke="#041630" stroke-width="0.873722605"></path>
                            </g>
                            <path d="M35.4404395,74.3145565 C36.3252401,74.9481132 37.0725539,74.9481132 37.6823808,74.3145565 C38.2922078,73.6809999 39.1902056,72.0775445 40.3763742,69.5041903 L38.9345352,67.0145547 L34.0701016,74.3145565 L35.4404395,74.3145565 Z" id="Path-7" stroke="#041630" stroke-width="0.873722605" fill="#FEFEFE"></path>
                            <polygon id="Rectangle" stroke="#041630" stroke-width="0.97080292" fill="#FFB1BC" transform="translate(35.170444, 67.467194) rotate(-40.000000) translate(-35.170444, -67.467194) " points="26.7316776 64.1811096 40.781543 61.4669191 43.6092111 69.1240611 28.049455 73.4674687"></polygon>
                            <path d="M24.3795689,48.5217715 C28.9001269,55.2069323 31.1604059,68.852528 31.1604059,89.4585587 C22.9037176,91.2791107 18.6558088,92.6068492 18.4166796,93.4417739 C18.3643943,93.624329 18.3887209,93.9571941 18.5478607,93.9571941 C23.7188988,93.9571941 19.2850137,97.1476747 15.580203,99.2266936 C13.1103291,100.612706 9.63511069,102.589763 5.15454761,105.157864 L7.37574215,82.3291507 C5.09654729,79.3080793 5.09654729,75.4233871 7.37574215,70.6750743 C-1.867103,67.7940964 18.2812352,53.685693 24.3795689,48.5217715 Z" id="Path-4" stroke="#041630" stroke-width="0.97080292" fill="#FFB1BC"></path>
                            <path d="M0.557522609,20.0334534 C0.557522609,17.7013362 3.17024899,16.6960589 3.70667403,19.2130277 C4.06429072,20.8910069 3.55566592,22.329447 2.18079963,23.5283479 C1.09861495,22.753163 0.557522609,21.5881981 0.557522609,20.0334534 Z" id="Rectangle" stroke="#041630" stroke-width="0.873722605" fill="#FEFEFE"></path>
                            <path d="M5.85859805,19.6364244 C4.25088253,18.6840655 3.14600609,15.5709802 4.23390645,16.4630866 C4.95917336,17.0578242 5.67966764,17.6831691 6.3953893,18.3391215" id="Path-3" stroke="#041630" stroke-width="0.97080292" fill="#FEFEFE"></path>
                            <path d="M7.13730373,71.2348041 C10.13187,65.4092267 15.8022505,59.6829384 24.1484451,54.0559392" id="Path-5" stroke="#041630" stroke-width="0.873722605"></path>
                            <path d="M7.41914426,82.1946472 C8.37751146,77.8842684 10.9802497,74.1818068 15.2273589,71.0872624" id="Path-5" stroke="#041630" stroke-width="0.873722605"></path>
                            <path d="M37.3514866,71.9365557 C35.7555926,70.7584637 35.2591692,69.733366 35.8622161,68.8612628 C36.4652631,67.9891595 37.4183768,68.0403225 38.7215572,69.0147517 C38.6990969,69.3124431 38.3072061,68.4182842 37.5458848,66.3322749 C37.9145132,65.3760467 38.697451,66.1706321 39.8946984,68.7160311" id="Path-6" stroke="#041630" stroke-width="0.873722605" fill="#FEFEFE"></path>
                            <path d="M12.7959074,42.7777561 C13.5585847,44.3422873 13.7492541,45.7847506 13.3679154,47.105146" id="Path-13" stroke="#041630" stroke-width="0.873722605"></path>
                            <path d="M13.7898081,44.9414511 C15.1905471,45.3851266 16.7194298,46.5785667 18.3764563,48.5217715 C20.0334828,50.4649762 21.9574791,50.6529655 24.1484451,49.0857392" id="Path-14" stroke="#041630" stroke-width="0.873722605"></path>
                            <path d="M18.9691266,45.5402775 C17.0580385,45.5402775 15.331599,43.4214216 13.7898081,39.1837097 C14.8850801,36.8539832 16.4710977,35.68912 18.5478607,35.68912 C20.6246237,35.68912 22.0500074,36.7305678 22.824012,38.8134635 C22.1651765,43.2980062 20.8802147,45.5402775 18.9691266,45.5402775 Z" id="Path-15" stroke="#041630" stroke-width="0.97080292" fill="#FFD5DB"></path>
                            <polyline id="Path-16" stroke="#041630" stroke-width="0.873722605" points="15.6428744 43.1480023 15.6428744 45.9105237 13.7898081 45.3116972 14.7163413 42.7155227"></polyline>
                            <path d="M21.2126666,44.3130232 C21.1566366,46.0431913 21.5700993,47.4461073 22.4530548,48.5217715" id="Path-17" stroke="#041630" stroke-width="0.873722605"></path>
                            <path d="M10.5813371,102.289179 L8.91607699,122.921725" id="Path-18" stroke="#041630" stroke-width="0.873722605"></path>
                            <path d="M16.7942122,99.3077098 L13.459597,123.003254" id="Path-18-Copy" stroke="#041630" stroke-width="0.873722605" transform="translate(15.126905, 111.155482) rotate(-5.000000) translate(-15.126905, -111.155482) "></path>
                            <path d="M26.322394,91.6359242 L27.2497871,122.986781" id="Path-19" stroke="#041630" stroke-width="0.873722605"></path>
                            <path d="M21.8303532,92.7466627 L21.700997,122.66718" id="Path-19" stroke="#041630" stroke-width="0.873722605"></path>
                            <path d="M18.631929,93.1169089 L21.3637993,63.6823393" id="Path-20" stroke="#041630" stroke-width="0.873722605"></path>
                        </g>
                        <rect id="Rectangle" stroke="#041630" stroke-width="0.969890027" fill="#FFB1BC" x="6.31021898" y="122.321168" width="37.3759124" height="5.33941606"></rect>
                        <rect id="Rectangle" stroke="#041630" stroke-width="0.969890027" fill="#FFFFFF" x="0" y="127.660584" width="49.9963504" height="5.33941606"></rect>
                    </g>
                    <g id="Group-4" transform="translate(0.000000, 39.317518)" fill="#FEFEFE" fill-rule="nonzero" stroke="#C5001A" stroke-linecap="round" stroke-linejoin="round" stroke-width="0.892345679">
                        <path d="M36.5478746,8.08545943 C35.3296121,8.08545943 34.1874911,8.44202915 33.2357235,9.06843542 C32.2839559,3.91262995 27.820166,0 22.4521969,0 C17.0747102,0 12.5918849,3.92226697 11.6591527,9.09734648 C10.5265493,8.45166617 9.22262774,8.08545943 7.82352941,8.08545943 C3.50250465,8.08545943 0,11.6318826 0,16.0070895 C0,16.8551472 0.13324746,17.6742939 0.380707027,18.4452555 L41.173465,18.4452555 C42.1347503,17.3466352 42.7153285,15.9010823 42.7153285,14.3206111 C42.7058108,10.8801951 39.9552025,8.08545943 36.5478746,8.08545943 Z" id="Path"></path>
                    </g>
                    <g id="Group-4-Copy" transform="translate(125.718978, 26.697080)" fill="#FEFEFE" fill-rule="nonzero" stroke="#C5001A" stroke-linecap="round" stroke-linejoin="round" stroke-width="0.892345679">
                        <path d="M24.5036887,5.53215645 C23.686899,5.53215645 22.9211588,5.77612521 22.2830419,6.20471897 C21.644925,2.6770626 18.6521568,0 15.0531775,0 C11.447817,0 8.44228649,2.68365635 7.81693193,6.22450023 C7.05757283,5.78271896 6.18335269,5.53215645 5.24532086,5.53215645 C2.34827016,5.53215645 0,7.95865654 0,10.9522191 C0,11.5324692 0.0893363649,12.0929379 0.255246757,12.620438 L27.6049368,12.620438 C28.2494348,11.8687504 28.6386861,10.8796879 28.6386861,9.79831285 C28.632305,7.44434402 26.7881471,5.53215645 24.5036887,5.53215645 Z" id="Path"></path>
                    </g>
                </g>
            </g>
        </g>
    </g>
</svg>